# xmcd
#
# Track frame offsets:
#	150
#	7625
#	26616
#	41064
#	62208
#	85452
#	107091
#	127788
#	150703
#	173362
#	193000
#	212986
#	238139
#	259607
#	275848
#
# Disc length: 3863 seconds
#
# Revision: 1
# Processed by: cddbd v1.5.2PL0 Copyright (c) Steve Scherf et al.
# Submitted via: EZCDAudioConverter 8.0.2.1
#
DISCID=c80f150f
DTITLE=Đàm Vĩnh Hưng - Dạ Khúc Cho Tình Nhân 7. Chờ Đông
DYEAR=2013
DGENRE=World Pop
TTITLE0=Lời bạt
TTITLE1=Chờ Đông
TTITLE2=Bên nhau ngày vui
TTITLE3=Thuở ấy có em
TTITLE4=Nhật ký đời tôi
TTITLE5=Đoạn buồn cho tôi
TTITLE6=Kiếp nghèo
TTITLE7=Hồi tưởng
TTITLE8=Nếu chúng mình cách trở
TTITLE9=Thói đời
TTITLE10=Hỏi người còn nhớ đến ta
TTITLE11=Không bao giờ quên anh
TTITLE12=Đoạn cuối tình yêu
TTITLE13=Gặp nhau làm ngơ
TTITLE14=Ghen
EXTD=
EXTT0=
EXTT1=
EXTT2=
EXTT3=
EXTT4=
EXTT5=
EXTT6=
EXTT7=
EXTT8=
EXTT9=
EXTT10=
EXTT11=
EXTT12=
EXTT13=
EXTT14=
PLAYORDER=
